<svg width="2037" height="425" xmlns="http://www.w3.org/2000/svg" xmlns:xlink="http://www.w3.org/1999/xlink" xml:space="preserve" overflow="hidden"><defs><clipPath id="clip0"><rect x="2331" y="1616" width="2037" height="425"/></clipPath><linearGradient x1="4105.5" y1="1764" x2="4105.5" y2="1720" gradientUnits="userSpaceOnUse" spreadMethod="reflect" id="fill1"><stop offset="0" stop-color="#CBCBFF"/><stop offset="0.5" stop-color="#678DDB"/><stop offset="1" stop-color="#0450B7"/></linearGradient><clipPath id="clip2"><path d="M2608.52 1763.6C2665.56 1714.73 2591.35 1662.24 2546.69 1643.03 2499.39 1622.71 2435.97 1635.08 2392.33 1680.01 2354.67 1718.21 2331.47 1770.66 2331.47 1828.54 2331.47 1887.66 2355.69 1941.08 2394.71 1979.5 2372.73 1935 2372.01 1893.1 2392.33 1845.84 2410.18 1804.27 2439.46 1792.63 2471.5 1770.91 2488.38 1749.92 2514.26 1736.49 2543.29 1736.49 2568.79 1736.49 2591.86 1746.86 2608.52 1763.6"/></clipPath><linearGradient x1="2343" y1="2005.67" x2="2595.91" y2="1673.02" gradientUnits="userSpaceOnUse" spreadMethod="pad" id="fill3"><stop offset="0" stop-color="#CBCBFF"/><stop offset="0.35" stop-color="#9898FF"/><stop offset="1" stop-color="#0450B7"/></linearGradient><clipPath id="clip4"><path d="M2476.48 1765.22C2429.13 1767.77 2386.89 1796.92 2367.98 1841.04 2347.66 1888.34 2358.28 1943.21 2394.75 1979.54 2433 2017.16 2485.44 2040.36 2543.33 2040.36 2602.45 2040.36 2655.87 2016.14 2694.29 1977.12 2634.36 1988 2607.89 1974.74 2560.58 1954.47 2523.1 1938.36 2529.73 1936.15 2501.85 1910.78 2471.84 1895.65 2451.23 1864.5 2451.23 1828.54 2451.23 1804.02 2460.84 1781.71 2476.48 1765.22"/></clipPath><linearGradient x1="2673.09" y1="2051.92" x2="2388.21" y2="1772.65" gradientUnits="userSpaceOnUse" spreadMethod="pad" id="fill5"><stop offset="0" stop-color="#CBCBFF"/><stop offset="0.35" stop-color="#9898FF"/><stop offset="1" stop-color="#0450B7"/></linearGradient><clipPath id="clip6"><path d="M2479.96 1895.35C2482.51 1942.7 2511.67 1984.94 2555.78 2003.85 2603.08 2024.17 2657.95 2013.54 2694.29 1977.08 2731.9 1938.83 2755.11 1886.38 2755.11 1828.54 2755.11 1769.42 2730.88 1716 2691.87 1677.58 2700.88 1729.18 2698.67 1763.98 2678.35 1811.29 2662.41 1848.39 2652.26 1841.46 2626.16 1868.75 2611.24 1899.47 2579.75 1920.64 2543.29 1920.64 2518.76 1920.64 2496.45 1911.03 2479.96 1895.35"/></clipPath><linearGradient x1="2736.35" y1="1652.68" x2="2544.76" y2="1972.26" gradientUnits="userSpaceOnUse" spreadMethod="pad" id="fill7"><stop offset="0" stop-color="#CBCBFF"/><stop offset="0.35" stop-color="#9898FF"/><stop offset="1" stop-color="#0450B7"/></linearGradient><clipPath id="clip8"><path d="M2610.1 1891.91C2657.44 1889.36 2699.69 1860.2 2718.6 1816.09 2738.91 1768.79 2728.29 1713.92 2691.82 1677.58 2653.62 1639.97 2601.17 1616.72 2543.29 1616.72 2484.17 1616.72 2430.75 1640.95 2392.33 1679.96 2428.62 1643.5 2483.53 1632.87 2530.83 1653.19 2574.95 1672.14 2604.1 1714.39 2606.65 1761.69 2624.33 1778.48 2635.39 1802.19 2635.39 1828.5 2635.39 1853.11 2625.78 1875.38 2610.1 1891.91"/></clipPath><linearGradient x1="2392.32" y1="1754.32" x2="2738.94" y2="1754.32" gradientUnits="userSpaceOnUse" spreadMethod="pad" id="fill9"><stop offset="0" stop-color="#CBCBFF"/><stop offset="0.35" stop-color="#9898FF"/><stop offset="1" stop-color="#0450B7"/></linearGradient></defs><g clip-path="url(#clip0)" transform="translate(-2331 -1616)"><path d="M2922.73 1860.79 2869.92 1860.79 2861.35 1886 2825 1886 2876.44 1743 2916.56 1743 2968 1886 2931.31 1886 2922.73 1860.79ZM2913.82 1833.84 2896.33 1781.34 2878.84 1833.84 2913.82 1833.84Z" fill="#001F4D" fill-rule="evenodd"/><path d="M3003.7 1881.81C2996.16 1878.36 2989.99 1873.89 2985.54 1868.04 2981.08 1862.19 2978.69 1855.65 2978 1848.43L3012.27 1848.43C3012.61 1852.21 3014.32 1855.65 3017.75 1858.06 3020.83 1860.47 3024.94 1861.85 3029.74 1861.85 3034.2 1861.85 3037.28 1861.16 3039.68 1859.44 3042.08 1857.72 3043.1 1855.65 3043.1 1852.9 3043.1 1849.8 3041.39 1847.39 3037.97 1845.67 3034.54 1843.95 3029.06 1842.23 3021.52 1840.51 3013.29 1838.79 3006.78 1836.73 3001.3 1834.66 2995.82 1832.6 2991.36 1829.16 2987.25 1824.68 2983.48 1820.21 2981.43 1814.01 2981.43 1806.44 2981.43 1799.91 2983.14 1794.06 2986.91 1788.55 2990.34 1783.04 2995.82 1778.91 3002.67 1775.82 3009.52 1772.72 3017.75 1771 3027.34 1771 3041.39 1771 3052.7 1774.44 3060.92 1781.67 3069.15 1788.55 3073.6 1798.19 3074.97 1809.54L3043.1 1809.54C3042.42 1805.76 3040.71 1802.66 3037.97 1800.25 3035.22 1797.84 3031.11 1796.81 3026.66 1796.81 3022.55 1796.81 3019.46 1797.5 3017.41 1799.22 3015.35 1800.94 3014.32 1803 3014.32 1805.76 3014.32 1808.85 3016.04 1811.61 3019.46 1812.98 3022.89 1814.7 3028.37 1816.08 3035.57 1817.8 3043.79 1819.86 3050.64 1821.93 3056.13 1824.34 3061.27 1826.4 3066.06 1829.84 3069.83 1834.32 3073.94 1839.14 3076 1845.33 3076 1853.24 3076 1859.78 3074.29 1865.63 3070.52 1871.14 3066.75 1876.3 3061.61 1880.43 3054.41 1883.53 3047.56 1886.62 3039.34 1888 3030.43 1888 3020.15 1886.97 3011.24 1885.25 3003.7 1881.81Z" fill="#001F4D" fill-rule="evenodd"/><path d="M3116.7 1881.81C3109.16 1878.36 3102.99 1873.89 3098.54 1868.04 3094.08 1862.19 3091.69 1855.65 3091 1848.43L3125.27 1848.43C3125.61 1852.21 3127.32 1855.65 3130.75 1858.06 3133.83 1860.47 3137.94 1861.85 3142.74 1861.85 3147.2 1861.85 3150.28 1861.16 3152.68 1859.44 3155.08 1857.72 3156.1 1855.65 3156.1 1852.9 3156.1 1849.8 3154.39 1847.39 3150.97 1845.67 3147.54 1843.95 3142.06 1842.23 3134.52 1840.51 3126.29 1838.79 3119.78 1836.73 3114.3 1834.66 3108.82 1832.6 3104.36 1829.16 3100.25 1824.68 3096.48 1820.21 3094.43 1814.01 3094.43 1806.44 3094.43 1799.91 3096.14 1794.06 3099.91 1788.55 3103.34 1783.04 3108.82 1778.91 3115.67 1775.82 3122.52 1772.72 3130.75 1771 3140.34 1771 3154.39 1771 3165.7 1774.44 3173.92 1781.67 3182.15 1788.55 3186.6 1798.19 3187.97 1809.54L3156.1 1809.54C3155.42 1805.76 3153.71 1802.66 3150.97 1800.25 3148.22 1797.84 3144.11 1796.81 3139.66 1796.81 3135.55 1796.81 3132.46 1797.5 3130.41 1799.22 3128.35 1800.94 3127.32 1803 3127.32 1805.76 3127.32 1808.85 3129.04 1811.61 3132.46 1812.98 3135.89 1814.7 3141.37 1816.08 3148.57 1817.8 3156.79 1819.86 3163.64 1821.93 3169.13 1824.34 3174.27 1826.4 3179.06 1829.84 3182.83 1834.32 3186.94 1839.14 3189 1845.33 3189 1853.24 3189 1859.78 3187.29 1865.63 3183.52 1871.14 3179.75 1876.3 3174.61 1880.43 3167.41 1883.53 3160.56 1886.62 3152.34 1888 3143.43 1888 3133.15 1886.97 3124.24 1885.25 3116.7 1881.81Z" fill="#001F4D" fill-rule="evenodd"/><path d="M3316.31 1837.1 3237.79 1837.1C3238.47 1843.99 3240.54 1849.49 3244.67 1853.28 3248.81 1857.06 3253.63 1858.78 3259.48 1858.78 3268.09 1858.78 3274.29 1855 3277.39 1847.77L3314.24 1847.77C3312.18 1855.34 3309.08 1861.88 3303.91 1867.73 3299.09 1873.58 3292.89 1878.4 3285.31 1881.84 3277.74 1885.28 3269.47 1887 3260.17 1887 3249.15 1887 3239.16 1884.59 3230.55 1879.77 3221.94 1874.96 3215.05 1868.42 3210.23 1859.47 3205.41 1850.52 3203 1840.54 3203 1828.5 3203 1816.8 3205.41 1806.48 3210.23 1797.53 3215.05 1788.58 3221.94 1782.04 3230.55 1777.23 3239.16 1772.41 3249.15 1770 3260.52 1770 3271.54 1770 3281.18 1772.41 3289.79 1776.88 3298.4 1781.36 3304.95 1787.89 3309.77 1796.5 3314.59 1805.1 3317 1815.08 3317 1826.44 3317 1830.22 3316.66 1833.32 3316.31 1837.1ZM3281.53 1817.83C3281.53 1811.98 3279.46 1807.16 3275.33 1803.72 3271.19 1800.28 3266.03 1798.56 3260.17 1798.56 3254.32 1798.56 3249.5 1800.28 3245.36 1803.72 3241.23 1807.16 3238.82 1811.98 3237.79 1818.18L3281.53 1818.18Z" fill="#001F4D" fill-rule="evenodd"/><path d="M3512.63 1784.12C3520.88 1792.76 3525 1804.5 3525 1819.69L3525 1886 3490.64 1886 3490.64 1824.18C3490.64 1816.93 3488.58 1811.06 3484.8 1807.26 3481.02 1803.12 3475.52 1801.39 3469 1801.39 3462.12 1801.39 3456.97 1803.46 3453.19 1807.26 3449.41 1811.41 3447.35 1816.93 3447.35 1824.18L3447.35 1886 3412.99 1886 3412.99 1824.18C3412.99 1816.93 3410.93 1811.06 3407.15 1807.26 3403.37 1803.12 3397.88 1801.39 3391.35 1801.39 3384.48 1801.39 3379.32 1803.46 3375.54 1807.26 3371.76 1811.41 3369.7 1816.93 3369.7 1824.18L3369.7 1886 3335 1886 3335 1772.38 3369.7 1772.38 3369.7 1786.54C3373.14 1781.71 3377.95 1777.91 3383.45 1775.14 3389.29 1772.38 3395.47 1771 3402.69 1771 3411.27 1771 3418.83 1772.73 3425.36 1776.53 3431.89 1780.32 3437.39 1785.5 3441.17 1792.07 3444.95 1785.85 3450.44 1780.67 3457.31 1776.87 3464.19 1773.07 3471.4 1771 3479.3 1771 3493.39 1771 3504.39 1775.49 3512.63 1784.12Z" fill="#001F4D" fill-rule="evenodd"/><path d="M3597.97 1775.72C3604.17 1772.64 3611.07 1770.93 3619 1770.93 3628.31 1770.93 3636.93 1773.32 3644.52 1778.12 3652.1 1782.91 3657.97 1789.41 3662.45 1798.32 3666.93 1807.22 3669 1817.15 3669 1828.79 3669 1840.43 3666.93 1850.71 3662.45 1859.27 3657.97 1868.17 3652.1 1875.02 3644.52 1879.81 3636.93 1884.6 3628.31 1887 3619 1887 3611.07 1887 3604.17 1885.29 3597.97 1882.21 3591.76 1879.12 3587.28 1874.67 3583.83 1869.54L3583.83 1885.29 3549 1885.29 3549 1736 3583.83 1736 3583.83 1788.73C3586.93 1783.25 3591.76 1779.14 3597.97 1775.72ZM3626.24 1808.59C3621.41 1803.8 3615.55 1801.06 3608.31 1801.06 3601.41 1801.06 3595.55 1803.45 3590.72 1808.59 3585.9 1813.73 3583.48 1820.23 3583.48 1829.13 3583.48 1837.69 3585.9 1844.54 3590.72 1849.68 3595.55 1854.81 3601.41 1857.21 3608.31 1857.21 3615.21 1857.21 3621.07 1854.81 3625.9 1849.68 3630.72 1844.54 3633.14 1837.69 3633.14 1829.13 3633.48 1820.23 3631.07 1813.38 3626.24 1808.59Z" fill="#001F4D" fill-rule="evenodd"/><path d="M3721 1736 3721 1886 3687 1886 3687 1736 3721 1736Z" fill="#001F4D" fill-rule="evenodd"/><path d="M3862 1773 3791.31 1939 3754.25 1939 3779.98 1881.84 3734 1773 3772.78 1773 3798.86 1843.51 3824.6 1773 3862 1773Z" fill="#001F4D" fill-rule="evenodd"/><path d="M4071 1743 4033.78 1886 3991.74 1886 3969 1792.05 3945.22 1886 3903.18 1886 3867 1743 3904.22 1743 3924.89 1846.97 3950.39 1743 3988.64 1743 4013.11 1846.97 4033.78 1743 4071 1743Z" fill="#001F4D" fill-rule="evenodd"/><path d="M4090.81 1755.39C4087.05 1751.95 4085 1747.47 4085 1741.95 4085 1736.44 4087.05 1731.96 4090.81 1728.51 4094.57 1725.07 4099.69 1723 4105.5 1723 4111.31 1723 4116.43 1724.72 4120.19 1728.51 4123.95 1731.96 4126 1736.44 4126 1741.95 4126 1747.12 4123.95 1751.6 4120.19 1755.39 4116.43 1758.84 4111.65 1760.91 4105.5 1760.91 4099.69 1760.91 4094.57 1759.18 4090.81 1755.39ZM4122.58 1772.62 4122.58 1886 4088.08 1886 4088.08 1772.62 4122.58 1772.62Z" fill="#001F4D" fill-rule="evenodd"/><path d="M4167.7 1881.81C4160.16 1878.36 4153.99 1873.89 4149.54 1868.04 4145.08 1862.19 4142.69 1855.65 4142 1848.43L4176.27 1848.43C4176.61 1852.21 4178.32 1855.65 4181.75 1858.06 4184.83 1860.47 4188.94 1861.85 4193.74 1861.85 4198.2 1861.85 4201.28 1861.16 4203.68 1859.44 4206.08 1857.72 4207.11 1855.65 4207.11 1852.9 4207.11 1849.8 4205.39 1847.39 4201.97 1845.67 4198.54 1843.95 4193.06 1842.23 4185.52 1840.51 4177.29 1838.79 4170.78 1836.73 4165.3 1834.66 4159.82 1832.6 4155.36 1829.16 4151.25 1824.68 4147.48 1820.21 4145.43 1814.01 4145.43 1806.44 4145.43 1799.91 4147.14 1794.06 4150.91 1788.55 4154.34 1783.04 4159.82 1778.91 4166.67 1775.82 4173.52 1772.72 4181.75 1771 4191.34 1771 4205.39 1771 4216.7 1774.44 4224.92 1781.67 4233.15 1788.55 4237.6 1798.19 4238.97 1809.54L4207.11 1809.54C4206.42 1805.76 4204.71 1802.66 4201.97 1800.25 4199.22 1797.84 4195.11 1796.81 4190.66 1796.81 4186.55 1796.81 4183.46 1797.5 4181.41 1799.22 4179.35 1800.94 4178.32 1803 4178.32 1805.76 4178.32 1808.85 4180.04 1811.61 4183.46 1812.98 4186.89 1814.7 4192.37 1816.08 4199.57 1817.8 4207.79 1819.86 4214.64 1821.93 4220.13 1824.34 4225.27 1826.4 4230.06 1829.84 4233.83 1834.32 4237.94 1839.14 4240 1845.33 4240 1853.24 4240 1859.78 4238.29 1865.63 4234.52 1871.14 4230.75 1876.3 4225.61 1880.43 4218.41 1883.53 4211.22 1886.62 4203.34 1888 4194.43 1888 4184.15 1886.97 4175.24 1885.25 4167.7 1881.81Z" fill="#001F4D" fill-rule="evenodd"/><path d="M4367.31 1837.1 4288.79 1837.1C4289.47 1843.99 4291.54 1849.49 4295.67 1853.28 4299.81 1857.06 4304.63 1858.78 4310.48 1858.78 4319.09 1858.78 4325.29 1855 4328.39 1847.77L4365.24 1847.77C4363.18 1855.34 4360.08 1861.88 4354.91 1867.73 4350.09 1873.58 4343.89 1878.4 4336.31 1881.84 4328.74 1885.28 4320.47 1887 4311.17 1887 4300.15 1887 4290.16 1884.59 4281.55 1879.77 4272.94 1874.96 4266.05 1868.42 4261.23 1859.47 4256.41 1850.52 4254 1840.54 4254 1828.5 4254 1816.8 4256.41 1806.48 4261.23 1797.53 4266.05 1788.58 4272.94 1782.04 4281.55 1777.23 4290.16 1772.41 4300.15 1770 4311.52 1770 4322.54 1770 4332.18 1772.41 4340.79 1776.88 4349.4 1781.36 4355.95 1787.89 4360.77 1796.5 4365.59 1805.1 4368 1815.08 4368 1826.44 4368 1830.22 4367.66 1833.66 4367.31 1837.1ZM4332.18 1817.83C4332.18 1811.98 4330.12 1807.16 4325.98 1803.72 4321.85 1800.28 4316.68 1798.56 4310.83 1798.56 4304.97 1798.56 4300.15 1800.28 4296.02 1803.72 4291.89 1807.16 4289.47 1811.98 4288.44 1818.18L4332.18 1818.18Z" fill="#001F4D" fill-rule="evenodd"/><path d="M4128 1742C4128 1754.15 4117.93 1764 4105.5 1764 4093.07 1764 4083 1754.15 4083 1742 4083 1729.85 4093.07 1720 4105.5 1720 4117.93 1720 4128 1729.85 4128 1742Z" fill="url(#fill1)" fill-rule="evenodd"/><g><g><g><g clip-path="url(#clip2)"><path d="M2331.47 1622.71 2665.52 1622.71 2665.52 1979.54 2331.47 1979.54Z" fill="url(#fill3)"/></g><g clip-path="url(#clip4)"><path d="M2347.66 1765.22 2694.29 1765.22 2694.29 2040.36 2347.66 2040.36Z" fill="url(#fill5)"/></g><g clip-path="url(#clip6)"><path d="M2479.96 1677.58 2755.11 1677.58 2755.11 2024.21 2479.96 2024.21Z" fill="url(#fill7)"/></g><g clip-path="url(#clip8)"><path d="M2392.33 1616.72 2738.96 1616.72 2738.96 1891.87 2392.33 1891.87Z" fill="url(#fill9)"/></g></g></g></g></g></svg>